<svg xmlns="http://www.w3.org/2000/svg" xmlns:sketch="http://www.bohemiancoding.com/sketch/ns"><g sketch:type="MSArtboardGroup" fill="none"><path d="M19.012 258.425c-9.058 0-16.304 7.485-16.304 16.84 0 7.485 4.71 13.66 11.231 15.905.906.187 1.087-.374 1.087-.748v-2.807c-4.529.936-5.435-2.245-5.435-2.245-.725-1.871-1.812-2.433-1.812-2.433-1.449-1.123.181-.936.181-.936 1.63.187 2.536 1.684 2.536 1.684 1.449 2.62 3.804 1.871 4.71 1.31.181-1.123.543-1.871 1.087-2.245-3.623-.374-7.427-1.871-7.427-8.233 0-1.871.725-3.368 1.63-4.491-.181-.374-.725-2.058.181-4.491 0 0 1.449-.374 4.529 1.684 1.268-.374 2.717-.561 4.167-.561 1.449 0 2.717.187 4.167.561 3.08-2.245 4.529-1.684 4.529-1.684.906 2.245.362 4.117.181 4.491 1.087 1.123 1.63 2.62 1.63 4.491 0 6.549-3.804 7.859-7.427 8.233.543.561 1.087 1.497 1.087 3.181v4.678c0 .374.362.936 1.087.748 6.521-2.245 11.05-8.607 11.05-15.905-.362-9.356-7.608-17.028-16.666-17.028z" sketch:type="MSShapeGroup" fill="#829AA8"/><path d="M33.272 212.363l-3.742-2.503 3.742-2.503v5.006zm-12.916 10.609v-6.976l6.484-4.337 5.234 3.501-11.718 7.812zm-1.495-9.574l-5.29-3.538 5.29-3.538 5.29 3.538-5.29 3.538zm-1.496 9.574l-11.719-7.812 5.235-3.501 6.484 4.337v6.976zm-12.916-15.615l3.742 2.503-3.742 2.503v-5.006zm12.916-10.61v6.976l-6.484 4.338-5.235-3.502 11.719-7.812zm2.991 0l11.718 7.812-5.234 3.502-6.484-4.338v-6.976zm15.894 7.615l-.012-.065-.026-.126-.023-.072-.039-.109-.033-.073-.051-.099-.042-.07-.063-.091-.051-.065-.075-.081-.06-.059-.085-.071-.068-.051-.025-.018-15.907-10.605c-.502-.335-1.157-.335-1.659 0l-15.907 10.605-.025.018-.067.051-.085.071-.06.059-.074.081-.052.065-.063.091-.043.07-.051.099-.033.073-.039.109-.023.072-.026.126-.012.065-.014.195v10.605l.014.196.012.064.026.126.023.072.039.11.033.072.051.1.043.069.063.091.052.065.074.081.06.058.085.072.067.051.025.018 15.907 10.605c.251.168.541.252.83.252.289 0 .578-.084.829-.252l15.907-10.605.025-.018.068-.051.085-.072.06-.058.075-.081.051-.065.063-.091.042-.069.051-.1.033-.072.039-.11.023-.072.026-.126.012-.064.013-.196v-10.605l-.013-.195z" sketch:type="MSShapeGroup" fill="#1A1918"/><g sketch:type="MSLayerGroup"><path d="M31.097 130h-23.986c-2.284 0-4.112 1.811-4.112 4.075v7.925h31.981v-7.925c.228-2.264-1.599-4.075-3.883-4.075z" fill="#895A4D" sketch:type="MSShapeGroup"/><g sketch:type="MSShapeGroup"><path d="M5.967 142h1.996v-12c-.887 0-1.344 0-1.996.188v11.812z" fill="#FF3939"/><path fill="#FED049" d="M7.962 130h1.997v12h-1.997z"/><path fill="#10DD76" d="M9.737 130h1.997v12h-1.997z"/><path fill="#5FCCFF" d="M11.734 130h1.997v12h-1.997z"/></g><g transform="translate(3 130) translate(23 2)" sketch:type="MSShapeGroup"><circle fill="#162838" cx="3.263" cy="3.737" r="2.884"/><circle fill="#2C4356" cx="3.263" cy="3.737" r="1.553"/><ellipse fill="#47637A" cx="3.263" cy="3.737" rx=".444" ry=".444"/></g><path d="M3 142v15.531c0 2.219 1.816 3.994 4.085 3.994h23.83c2.27 0 4.085-1.775 4.085-3.994v-15.531h-32z" fill="#E5E0DC" sketch:type="MSShapeGroup"/><path d="M28.329 142.506l-2.219-2.219v2.219h2.219z" fill="#75483D" sketch:type="MSShapeGroup"/><path d="M22.984 142.222l-9.984 9.984 9.319 9.319h8.653c2.219 0 3.994-1.775 3.994-3.994v-8.431l-7.1-7.1h-4.881v.222z" fill="#D0CBC5" sketch:type="MSShapeGroup"/><g transform="translate(3 130) translate(6 6)" sketch:type="MSShapeGroup"><ellipse fill="#DCD7D3" cx="10" cy="10" rx="9.109" ry="9.109"/><ellipse fill="#162838" cx="10" cy="10" rx="7.24" ry="7.24"/><circle fill="#2C4356" cx="10" cy="10" r="4.204"/><circle fill="#162838" cx="10" cy="10" r="2.102"/><circle fill="#47637A" cx="12.569" cy="7.431" r="1.635"/></g></g><path d="M3.6 77.6h6.6v21.4h-6.6v-21.4zm3.2-10.6c2.2 0 3.8 1.8 3.8 3.8 0 2.2-1.8 3.8-3.8 3.8-2.2 0-3.8-1.8-3.8-3.8 0-2 1.8-3.8 3.8-3.8zm7.6 10.6h6.4v3c.8-1.6 3-3.4 6.2-3.4 6.8 0 8 4.4 8 10.2v11.8h-6.6v-10.4c0-2.4 0-5.6-3.4-5.6s-4 2.6-4 5.4v10.6h-6.6v-21.6z" sketch:type="MSShapeGroup" fill="#007BB5"/><g sketch:type="MSLayerGroup"><path d="M36.431 19.954c-.348-5.537-5.755-16.476-9.866-16.91-2.467-.261-5.954-1.89-6.978-2.199-2.734-.82-6.677.321-9.074 2.959-.19.207-2.224 1.78-2.703 2.31-.199.218-2.055 1.4-2.9 2.394-.187.222-.344.534-.344.66 0 .144.347.044.245.131-.1.087-.29.122-.433.09-.144-.03.008-.234.033-.35-.555-.564-2.269 2.402-2.014 2.641.161.152.412-.625.71-.519.319.112-.056.366-.04.771.02.439.383.741.144.882-.111.066-.26.141-.271.269-.005.047.208.014.264.09.137.19-.173.372-.401.771-.062.109.154.143.26.23l-.103.331c-.03.201.188.28.078.391-.076.078-.302.23-.441.18-.099-.036-.108-.285-.196-.231-.45.282-.891 1.017-1.155 1.392-.95 1.349-1.579 3.148-1.058 2.704.185-.158.488-.309.578-.09.065.162-.274.671.648 2.582.778 1.617.388 3.498.532 3.365.26-.239.813-1.708.859-2.647.061-1.232.502-1.797.796-1.702-.056-.017-.319 2.28-.065 2.795 0-.171.763 2.744.914 3.384.637 2.688 1.816 4.172 2.946 6.547.623 1.309 1.286 4.644 5.686 5.374.325.054-1.933-1.514-2.66-2.883-.342-.648-1.243-3.352.505-1.677 1.75 1.677 2.313 3.298 10.216 4.562 1.66.264 5.233-1.085 6.159-1.959 1.587-1.499 3.574-3.403 4.086-3.936 1.164-1.216 2.403-2.206 2.801-2.776 1.991-2.861 2.461-6.477 2.244-9.926zm-5.559 2.506c1.748-.18-3.891 6.813-4.422 7.214-2.04 1.541-5.648 2.19-8.249 2.253h.002l.31.005c.31.006.222.443.394.489.223.059-.172-.046-.667-.046-.496 0-.658.046-.658.046s-.576.181-.708.317c-.134.136-.488-.271-.842-.363-.356-.09-.666-.407-.976-.443-.31-.035-.754.081-1.24 0-.488-.081-.798-.372-1.032-.508-.233-.136-.564-.906-.564-.906l-.634-.771c-1.173-.806-2.668-.95-3.868-1.873-.35-.269-2.206-2.544-1.228-2.693-.914-1.601-.412-3.645-1.4-5.184.009.036-.426-1.354-.413-1.522.036-.511.427-3.833.924-3.784-.032-.274 1.348-1.449 1.325-1.284.071-.567-.084-.32.389-.803l.117-.182c.119-.181.356-.416.356-.416v-.852c0-.182.409-.727.409-.727s.064-.543.005-.844c-.059-.302.473 0 .473 0l.565.844c.42-1.112 1.316-2.888 2.9-2.817 1.955.087 2.487.698 5.323-.95 2.455-1.427 9.886 2.138 10.473 4.737.28 1.241 3.102 4.718 3.273 5.339.716 2.606.517 3.447-.334 5.724z" fill="#6BB945" sketch:type="MSShapeGroup"/><path d="M36.431 19.954c-.348-5.537-5.755-16.476-9.866-16.91-2.467-.261-5.954-1.89-6.978-2.199-2.734-.82-6.677.321-9.074 2.959-.19.207-2.224 1.78-2.703 2.31-.199.218-2.055 1.4-2.9 2.394-.187.222-.344.534-.344.66 0 .144.347.044.245.131-.1.087-.29.122-.433.09-.144-.03.008-.234.033-.35-.555-.564-2.269 2.402-2.014 2.641.161.152.412-.625.71-.519.319.112-.056.366-.04.771.02.439.383.741.144.882-.111.066-.26.141-.271.269-.005.047.208.014.264.09.137.19-.173.372-.401.771-.062.109.154.143.26.23l-.103.331c-.03.201.188.28.078.391-.076.078-.302.23-.441.18-.099-.036-.108-.285-.196-.231-.45.282-.891 1.017-1.155 1.392-.95 1.349-1.579 3.148-1.058 2.704.185-.158.488-.309.578-.09.065.162-.274.671.648 2.582.778 1.617.388 3.498.532 3.365.26-.239.813-1.708.859-2.647.061-1.232.502-1.797.796-1.702-.056-.017-.319 2.28-.065 2.795 0-.171.763 2.744.914 3.384.637 2.688 1.816 4.172 2.946 6.547.623 1.309 1.286 4.644 5.686 5.374.325.054-1.933-1.514-2.66-2.883-.342-.648-1.243-3.352.505-1.677 1.75 1.677 2.313 3.298 10.216 4.562 1.66.264 5.233-1.085 6.159-1.959 1.587-1.499 3.574-3.403 4.086-3.936 1.164-1.216 2.403-2.206 2.801-2.776 1.991-2.861 2.461-6.477 2.244-9.926zm-5.559 2.506c1.748-.18-3.891 6.813-4.422 7.214-2.04 1.541-5.648 2.19-8.249 2.253h.002l.31.005c.31.006.222.443.394.489.223.059-.172-.046-.667-.046-.496 0-.658.046-.658.046s-.576.181-.708.317c-.134.136-.488-.271-.842-.363-.356-.09-.666-.407-.976-.443-.31-.035-.754.081-1.24 0-.488-.081-.798-.372-1.032-.508-.233-.136-.564-.906-.564-.906l-.634-.771c-1.173-.806-2.668-.95-3.868-1.873-.35-.269-2.206-2.544-1.228-2.693-.914-1.601-.412-3.645-1.4-5.184.009.036-.426-1.354-.413-1.522.036-.511.427-3.833.924-3.784-.032-.274 1.348-1.449 1.325-1.284.071-.567-.084-.32.389-.803l.117-.182c.119-.181.356-.416.356-.416v-.852c0-.182.409-.727.409-.727s.064-.543.005-.844c-.059-.302.473 0 .473 0l.565.844c.42-1.112 1.316-2.888 2.9-2.817 1.955.087 2.487.698 5.323-.95 2.455-1.427 9.886 2.138 10.473 4.737.28 1.241 3.102 4.718 3.273 5.339.716 2.606.517 3.447-.334 5.724z" fill="#7EC254" sketch:type="MSShapeGroup"/><path d="M27.935 11.398c-.587-2.6-8.018-6.164-10.473-4.737-2.836 1.648-3.368 1.037-5.323.95-1.584-.071-2.481 1.705-2.9 2.817-.178.475-.269.83-.289.869-.427.853-1.763 4.669-2.102 4.275l-.079.054v-.543c.002-.35.049-.89.157-1.675.023-.165-1.357 1.01-1.325 1.284-.497-.049-.888 3.273-.924 3.784-.012.168.423 1.558.413 1.522.988 1.539.486 3.583 1.4 5.184-.977.149.879 2.424 1.228 2.693 1.201.923 2.695 1.067 3.868 1.873l1.83.952s.28.211.576.407c.394.168.801.32 1.211.446l.828.144c.442.09 1.771.18 2.171.231 2.601-.063 6.209-.712 8.249-2.253.53-.401 6.17-7.394 4.422-7.214.851-2.277 1.05-3.118.334-5.724-.17-.621-2.993-4.098-3.273-5.339zm-17.501 11.267c-.009-.009.242.453.281.507l-.003-.021.003.021.424 1.126c-.787 0-.682-1.607-.705-1.632zm3.558-9.155c-.117.182-.532.12-.532.12-.008.063-.321.017-.502-.01-.23-.036 1.211-1.864 1.211-1.864s.929.122 1.222.146l-.038-.028.038.028c.406.109 1.538.383 1.538.383s-2.82 1.043-2.938 1.224zm10.876 2.115c-.474-.363-1.005-.736-1.17-.839-.164-.103-.815-1.351-.815-1.351l-.641-.359s-.056-.508.202-.28c1.075.942 1.938 1.612 2.564 2.174.546.489.926.934.926.934s-.593.084-1.066-.279z" fill="#217EB6" sketch:type="MSShapeGroup"/><path d="M23.862 14.889c.274.141 1.493.405 2.192 1.132.438.453.79.594.97 1.173.198.641.594 1.642.675 2.329.158 1.366.448 1.96-.108 3.247-.436 1.009-.929 2.188-1.853 2.72-.339.195-.795.548-1.128.808-.775.606-1.35 1.11-2.098 1.67-.661.496-1.423.993-2.47 1.169-.707.117-1.622.249-2.42.059-.213-.049-2.326-.651-3.393-1.476-.828-.64-2.202-2.104-2.877-3.167-.16-.253-.201-.125-.316-.41-.179-.442-.243-.929-.526-1.294-.228-.293-.394-1.398-.465-1.83-.076-.45-.116-.572-.147-1.681-.011-.366.509-2.172.622-2.508.184-.551.765-1.358 1.357-1.963.593-.606 2.928-1.854 3.225-1.924.298-.07.801-.426 1.33-.543 1.464-.321 1.94-.578 3.368-.22 1.538.386 1.538.386 3.081 1.256.068.038.62.504.643.85.023.356.064.464.337.603" fill="#FAD20B" sketch:type="MSShapeGroup"/></g></g></svg>